<?xml version="1.0" standalone="no"?>
<!DOCTYPE svg PUBLIC "-//W3C//DTD SVG 20010904//EN"
 "http://www.w3.org/TR/2001/REC-SVG-20010904/DTD/svg10.dtd">
<svg version="1.0" xmlns="http://www.w3.org/2000/svg"
 width="250.000000pt" height="250.000000pt" viewBox="0 0 250.000000 250.000000"
 preserveAspectRatio="xMidYMid meet">
<metadata>
Created by potrace 1.11, written by Peter Selinger 2001-2013
</metadata>
<g transform="translate(0.000000,250.000000) scale(0.100000,-0.100000)"
fill="#000000" stroke="none">
<path d="M1395 2091 c-65 -22 -114 -52 -193 -119 -44 -37 -70 -52 -83 -49 -23
6 -23 5 -5 -54 35 -113 97 -201 175 -247 44 -26 52 -27 179 -27 l134 0 25 -29
c20 -24 24 -37 19 -64 -7 -45 -28 -67 -82 -88 -100 -38 -298 39 -389 151 -48
59 -66 99 -84 193 l-17 84 -53 -58 c-59 -64 -146 -177 -210 -271 -23 -35 -44
-63 -46 -63 -7 0 35 113 51 138 21 31 13 36 -33 22 -84 -27 -144 -75 -204
-162 -45 -65 -112 -111 -156 -106 -43 5 -39 29 16 126 87 150 65 181 -113 160
-74 -9 -79 -8 -99 13 -17 19 -27 21 -76 16 -31 -3 -69 -11 -84 -18 l-28 -13
28 -22 c22 -19 41 -23 91 -24 38 0 75 6 93 15 36 19 154 22 174 5 24 -20 18
-38 -40 -135 -70 -116 -81 -149 -54 -176 26 -26 106 -26 159 1 22 11 43 20 49
20 5 0 3 -21 -5 -47 -18 -58 -22 -181 -11 -326 7 -92 6 -112 -7 -126 -28 -30
-47 -104 -53 -201 -5 -85 8 -234 21 -247 2 -3 17 -1 33 4 24 9 28 14 25 44
-16 205 1 237 193 361 55 35 115 81 133 102 17 20 32 32 32 26 0 -18 -30 -83
-47 -102 -21 -24 -12 -111 20 -201 36 -98 52 -119 85 -111 15 4 29 8 31 10 1
1 -4 31 -13 66 -9 36 -16 87 -16 114 0 44 3 52 28 66 56 33 130 99 171 151 34
45 41 61 41 99 0 51 18 156 30 178 5 9 6 -15 3 -55 -9 -108 -6 -486 3 -521 8
-28 11 -30 39 -22 29 7 32 12 54 103 41 172 114 335 172 386 l30 25 -31 68
c-22 49 -30 82 -29 119 l1 52 10 -35 c16 -54 40 -98 78 -144 46 -53 59 -85 67
-160 3 -33 11 -64 17 -68 19 -13 85 -9 124 8 96 40 182 177 237 379 l22 80 84
6 c100 7 127 13 196 46 80 38 142 109 168 193 7 21 1 18 -41 -19 -101 -90
-242 -124 -348 -84 l-49 18 -22 80 c-37 138 -93 236 -192 338 -64 66 -118 102
-191 126 -75 26 -167 26 -237 2z m329 -800 c23 -25 35 -96 15 -89 -19 6 -59
67 -59 89 0 24 22 24 44 0z"/>
<path d="M1959 1074 c-12 -26 -35 -62 -52 -81 -34 -39 -34 -40 35 -140 49 -70
54 -74 82 -69 16 4 31 8 34 11 2 2 -3 39 -12 82 -10 43 -24 115 -33 161 -8 45
-19 82 -23 82 -5 0 -18 -21 -31 -46z"/>
</g>
</svg>
